<?xml version="1.0" encoding="UTF-8" standalone="no"?>
<svg
   xmlns:dc="http://purl.org/dc/elements/1.1/"
   xmlns:cc="http://creativecommons.org/ns#"
   xmlns:rdf="http://www.w3.org/1999/02/22-rdf-syntax-ns#"
   xmlns:svg="http://www.w3.org/2000/svg"
   xmlns="http://www.w3.org/2000/svg"
   id="svg13"
   version="1.1"
   class="fl-svg"
   viewBox="0 0 512 512">
  <metadata
     id="metadata19">
    <rdf:RDF>
      <cc:Work
         rdf:about="">
        <dc:format>image/svg+xml</dc:format>
        <dc:type
           rdf:resource="http://purl.org/dc/dcmitype/StillImage" />
        <dc:title></dc:title>
      </cc:Work>
    </rdf:RDF>
  </metadata>
  <defs
     id="defs17">
    <defs
       id="_6mUSJ8lk5fhoTTOndkLaV"
       transform="matrix(0.886357307434082, 0, 0, 0.886357307434082, -28.342947006225586, 70.07705688476562)" />
  </defs>
  <rect
     style="fill:#efefef;fill-opacity:1"
     data-fl-background=""
     x="0"
     y="0"
     width="512"
     height="512"
     fill="transparent"
     id="rect2" />
  <path
     data-type="circle"
     data-cx="50"
     data-cy="50"
     data-r="50"
     d="m 255.99996,261.08717 m -176.858008,0 a 176.85801,176.85801 0 1 0 353.716018,0 176.85801,176.85801 0 1 0 -353.716018,0"
     id="path5"
     style="fill:#efefef;stroke-width:3.53716016;fill-opacity:1" />
  <path
     id="_0jdQD07NULSEAxiaxZPOE"
     d="m 255.99999,56.321674 c -110.28017,0 -199.678316,89.398146 -199.678316,199.678316 0,110.27791 89.398146,199.67831 199.678316,199.67831 110.27791,0 199.67831,-89.4004 199.67831,-199.67831 C 455.67604,145.71982 366.27564,56.321674 255.99999,56.321674 Z m 0,369.314546 c -93.68761,0 -169.636235,-75.95089 -169.636235,-169.63623 0,-93.68761 75.946365,-169.636234 169.636235,-169.636234 93.68534,0 169.63623,75.946364 169.63623,169.636234 -0.002,93.68534 -75.95315,169.63623 -169.63623,169.63623 z"
     style="fill:#061e64;stroke:none;stroke-width:2.26118326" />
  <g
     id="_36D3Fpvw8BhKXlW5C9wVS"
     transform="matrix(1.6733401,0,0,1.6733401,-171.27225,-1.3485563)">
    <path
       id="_DM-25yiJOpjY_yesepP-5"
       d="M 19,6 H 5 C 4.4,6 4,6.4 4,7 v 10 c 0,0.6 0.4,1 1,1 h 14 c 0.6,0 1,-0.4 1,-1 V 7 C 20,6.4 19.6,6 19,6 Z M 18,16 H 6 V 8 h 12 z"
       transform="matrix(8.4171753,0,0,8.4171753,154.33484,45.881191)"
       style="fill:#9a2c25;stroke:none;stroke-width:1" />
    <path
       id="_rO_PbUmBbAggpYK0ds17q"
       d="M 456.26,294.24 H 44.338 C 19.952,294.24 0,274.286 0,249.9 0,225.514 19.952,205.562 44.338,205.562 H 456.26 c 24.388,0 44.34,19.953 44.34,44.338 0,24.386 -19.954,44.34 -44.34,44.34"
       transform="matrix(0.1325445,0,0,0.15676253,222.21922,175.28709)"
       style="fill:#9a2c25;stroke:none;stroke-width:1" />
    <path
       id="_PwCsJ5XFgxHZ2ZBYDqqYB"
       d="m 972,-229 c 8,-0.2 12,9.4 6.3,15 l -40.8,40.8 c -2.5,2.5 -6.7,2.5 -9.2,0 L 907.6,-194 c -8.6,-8.2 4.1,-20.9 12.3,-12.3 l 11.5,11.5 c 0.8,0.8 2.2,0.8 3.1,0 l 31.5,-31.5 c 1.6,-1.7 3.7,-2.6 6,-2.7 z"
       transform="matrix(0.79046696,0,0,0.79046696,-489.85443,306.41656)"
       style="fill:#061e64;stroke:none;stroke-width:1" />
  </g>
</svg>
