<?xml version="1.0" encoding="UTF-8" standalone="no"?>
<svg
   xmlns:dc="http://purl.org/dc/elements/1.1/"
   xmlns:cc="http://creativecommons.org/ns#"
   xmlns:rdf="http://www.w3.org/1999/02/22-rdf-syntax-ns#"
   xmlns:svg="http://www.w3.org/2000/svg"
   xmlns="http://www.w3.org/2000/svg"
   viewBox="0 0 512 512"
   class="fl-svg"
   version="1.1"
   id="svg13">
  <metadata
     id="metadata19">
    <rdf:RDF>
      <cc:Work
         rdf:about="">
        <dc:format>image/svg+xml</dc:format>
        <dc:type
           rdf:resource="http://purl.org/dc/dcmitype/StillImage" />
        <dc:title></dc:title>
      </cc:Work>
    </rdf:RDF>
  </metadata>
  <defs
     id="defs17">
    <defs
       transform="matrix(0.886357307434082, 0, 0, 0.886357307434082, -28.342947006225586, 70.07705688476562)"
       id="_6mUSJ8lk5fhoTTOndkLaV" />
  </defs>
  <rect
     id="rect2"
     fill="transparent"
     height="512"
     width="512"
     y="0"
     x="0"
     data-fl-background=""
     style="fill:#ffffff;fill-opacity:1" />
  <path
     style="fill:#ffffff;stroke-width:3.53716016;fill-opacity:1"
     id="path5"
     d="m 255.99996,261.08717 m -176.858008,0 a 176.85801,176.85801 0 1 0 353.716018,0 176.85801,176.85801 0 1 0 -353.716018,0"
     data-r="50"
     data-cy="50"
     data-cx="50"
     data-type="circle" />
  <g
     transform="translate(1.098928,1.170722)"
     id="g4528">
    <path
       id="_0jdQD07NULSEAxiaxZPOE"
       d="m 254.90108,14.829276 c -132.54941,0 -240.000006,107.450604 -240.000006,240.000004 0,132.54669 107.450596,240 240.000006,240 132.54668,0 239.99999,-107.45331 239.99999,-240 C 494.89787,122.27988 387.44505,14.829276 254.90108,14.829276 Z m 0,443.891424 c -112.60625,0 -203.89143,-91.28789 -203.89143,-203.89142 0,-112.60625 91.28246,-203.891427 203.89143,-203.891427 112.60352,0 203.89143,91.282467 203.89143,203.891427 -0.002,112.60353 -91.29063,203.89142 -203.89143,203.89142 z"
       style="fill:#061e64;stroke:none;stroke-width:2.71779132" />
    <g
       id="_36D3Fpvw8BhKXlW5C9wVS"
       transform="matrix(1.8855404,0,0,1.8855404,-219.99317,-40.58085)">
      <path
         id="_DM-25yiJOpjY_yesepP-5"
         d="M 19,6 H 5 C 4.4,6 4,6.4 4,7 v 10 c 0,0.6 0.4,1 1,1 h 14 c 0.6,0 1,-0.4 1,-1 V 7 C 20,6.4 19.6,6 19,6 Z M 18,16 H 6 V 8 h 12 z"
         transform="matrix(8.4171753,0,0,8.4171753,154.33484,45.881191)"
         style="fill:#9a2c25;stroke:none;stroke-width:1" />
      <path
         id="_rO_PbUmBbAggpYK0ds17q"
         d="M 456.26,294.24 H 44.338 C 19.952,294.24 0,274.286 0,249.9 0,225.514 19.952,205.562 44.338,205.562 H 456.26 c 24.388,0 44.34,19.953 44.34,44.338 0,24.386 -19.954,44.34 -44.34,44.34"
         transform="matrix(0.1325445,0,0,0.15676253,222.21922,175.28709)"
         style="fill:#9a2c25;stroke:none;stroke-width:1" />
      <path
         id="_PwCsJ5XFgxHZ2ZBYDqqYB"
         d="m 972,-229 c 8,-0.2 12,9.4 6.3,15 l -40.8,40.8 c -2.5,2.5 -6.7,2.5 -9.2,0 L 907.6,-194 c -8.6,-8.2 4.1,-20.9 12.3,-12.3 l 11.5,11.5 c 0.8,0.8 2.2,0.8 3.1,0 l 31.5,-31.5 c 1.6,-1.7 3.7,-2.6 6,-2.7 z"
         transform="matrix(0.79046696,0,0,0.79046696,-489.85443,306.41656)"
         style="fill:#061e64;stroke:none;stroke-width:1" />
    </g>
  </g>
</svg>
